<svg width="4831" height="1160" viewBox="0 0 4831 1160" fill="none" xmlns="http://www.w3.org/2000/svg">
<rect x="1098" width="3733" height="1160" fill="#006E2E"/>
<path d="M349.966 252.662L464.808 231.368L469.184 254.966L376.366 272.176L384.971 318.585L362.946 322.669L349.966 252.662ZM372.853 376.096L487.695 354.802L500.822 425.595L480.685 429.329L471.846 381.661L446.046 386.445L453.864 428.606L433.727 432.34L425.909 390.179L397.277 395.488L406.116 443.155L385.979 446.889L372.853 376.096ZM395.681 499.215L510.524 477.921L517.437 515.205C518.915 523.176 518.678 530.38 516.725 536.817C514.792 543.359 511.348 548.771 506.392 553.053C501.561 557.42 495.422 560.294 487.975 561.675L446.915 569.288C439.574 570.65 432.813 570.168 426.632 567.842C420.47 565.622 415.262 561.814 411.007 556.419C406.877 551.11 404.073 544.47 402.595 536.499L395.681 499.215ZM422.081 518.729L424.619 532.415C425.514 537.24 427.597 540.867 430.868 543.298C434.139 545.729 438.03 546.527 442.54 545.691L483.6 538.077C488.005 537.261 491.298 535.131 493.481 531.689C495.663 528.247 496.307 524.113 495.413 519.289L492.875 505.602L422.081 518.729ZM424.463 663.213C423.043 655.557 423.214 648.582 424.976 642.289C426.844 635.976 430.045 630.718 434.581 626.514C439.242 622.395 445.033 619.694 451.955 618.41L500.724 609.368C507.751 608.065 514.126 608.51 519.848 610.704C525.59 613.002 530.412 616.773 534.313 622.016C538.319 627.24 541.032 633.68 542.451 641.336C543.891 649.097 543.667 656.082 541.78 662.29C540.018 668.583 536.859 673.779 532.304 677.879C527.767 682.083 521.986 684.836 514.959 686.139L510.583 662.541C515.198 661.686 518.468 659.723 520.394 656.654C522.34 653.69 522.875 649.848 522 645.128C521.125 640.409 519.238 636.961 516.34 634.787C513.461 632.717 509.714 632.11 505.099 632.965L456.331 642.008C451.821 642.844 448.541 644.754 446.49 647.738C444.564 650.807 444.039 654.702 444.914 659.421C445.789 664.141 447.666 667.536 450.545 669.605C453.548 671.761 457.305 672.42 461.815 671.584L471.726 669.746L468.575 652.756L488.555 649.051L496.081 689.64L466.19 695.182C459.268 696.465 452.884 695.968 447.037 693.689C441.314 691.495 436.45 687.786 432.444 682.563C428.562 677.424 425.902 670.974 424.463 663.213ZM442.826 753.476L557.669 732.182L570.795 802.975L550.658 806.709L541.82 759.041L516.02 763.825L523.837 805.987L503.7 809.72L495.883 767.559L467.251 772.868L476.089 820.535L455.953 824.269L442.826 753.476ZM465.713 876.909L580.556 855.615L587.411 892.585C588.927 900.766 588.824 908.108 587.101 914.611C585.378 921.114 582.195 926.477 577.554 930.701C572.933 935.029 567.056 937.855 559.924 939.177C552.478 940.558 545.478 939.957 538.924 937.376C532.389 934.899 527.238 930.809 523.468 925.108L480.298 955.569L475.543 929.926L515.521 903.311L513.479 892.299L470.059 900.35L465.713 876.909ZM533.931 888.507L536.439 902.036C537.412 907.28 539.471 911.075 542.618 913.421C545.785 915.871 549.728 916.659 554.448 915.784C559.377 914.87 562.933 912.691 565.115 909.249C567.317 905.912 567.932 901.621 566.959 896.377L564.451 882.848L533.931 888.507Z" fill="#E0E0E0"/>
<rect x="26.5" y="26.5" width="1107" height="1107" fill="#E1E1E1" stroke="#006E2E" stroke-width="53"/>
<rect x="880" y="110" width="170" height="940" fill="#006E2E"/>
<rect x="662" y="110" width="170" height="940" fill="#006E2E"/>
<rect x="306" y="124.257" width="170" height="940" transform="rotate(-9.91006 306 124.257)" fill="#006E2E"/>
<rect x="110" y="110" width="170" height="940" fill="#006E2E"/>
<path d="M349.967 252.662L464.809 231.368L469.185 254.966L376.367 272.176L384.972 318.585L362.947 322.669L349.967 252.662ZM372.854 376.096L487.696 354.802L500.823 425.595L480.686 429.329L471.847 381.661L446.047 386.445L453.865 428.606L433.728 432.34L425.91 390.179L397.278 395.488L406.117 443.155L385.98 446.889L372.854 376.096ZM395.682 499.215L510.525 477.921L517.438 515.205C518.916 523.176 518.679 530.38 516.726 536.817C514.793 543.359 511.349 548.771 506.393 553.053C501.562 557.42 495.423 560.294 487.976 561.675L446.916 569.288C439.575 570.65 432.814 570.168 426.633 567.842C420.471 565.622 415.263 561.814 411.008 556.419C406.878 551.11 404.074 544.47 402.596 536.499L395.682 499.215ZM422.082 518.729L424.62 532.415C425.515 537.24 427.598 540.867 430.869 543.298C434.14 545.729 438.031 546.527 442.541 545.691L483.601 538.077C488.006 537.261 491.299 535.131 493.482 531.689C495.664 528.247 496.308 524.113 495.414 519.289L492.876 505.602L422.082 518.729ZM424.464 663.213C423.044 655.557 423.215 648.582 424.977 642.289C426.844 635.976 430.046 630.718 434.582 626.514C439.243 622.395 445.034 619.694 451.956 618.41L500.725 609.368C507.752 608.065 514.127 608.51 519.849 610.704C525.591 613.002 530.413 616.773 534.314 622.016C538.32 627.24 541.033 633.68 542.452 641.336C543.892 649.097 543.668 656.082 541.781 662.29C540.019 668.583 536.86 673.779 532.305 677.879C527.768 682.083 521.987 684.836 514.96 686.139L510.584 662.541C515.199 661.686 518.469 659.723 520.395 656.654C522.341 653.69 522.876 649.848 522.001 645.128C521.126 640.409 519.239 636.961 516.341 634.787C513.462 632.717 509.715 632.11 505.1 632.965L456.332 642.008C451.822 642.844 448.542 644.754 446.491 647.738C444.565 650.807 444.04 654.702 444.915 659.421C445.79 664.141 447.667 667.536 450.546 669.605C453.549 671.761 457.306 672.42 461.816 671.584L471.727 669.746L468.576 652.756L488.556 649.051L496.082 689.64L466.191 695.182C459.269 696.465 452.885 695.968 447.038 693.689C441.315 691.495 436.451 687.786 432.445 682.563C428.563 677.424 425.903 670.974 424.464 663.213ZM442.827 753.476L557.67 732.182L570.796 802.975L550.659 806.709L541.821 759.041L516.021 763.825L523.838 805.987L503.701 809.72L495.884 767.559L467.252 772.868L476.09 820.535L455.954 824.269L442.827 753.476ZM465.714 876.909L580.557 855.615L587.412 892.585C588.928 900.766 588.825 908.108 587.102 914.611C585.379 921.114 582.196 926.477 577.555 930.701C572.934 935.029 567.057 937.855 559.925 939.177C552.479 940.558 545.479 939.957 538.925 937.376C532.39 934.899 527.239 930.809 523.469 925.108L480.299 955.569L475.544 929.926L515.522 903.311L513.48 892.299L470.06 900.35L465.714 876.909ZM533.932 888.507L536.44 902.036C537.413 907.28 539.472 911.075 542.619 913.421C545.786 915.871 549.729 916.659 554.449 915.784C559.378 914.87 562.934 912.691 565.116 909.249C567.318 905.912 567.933 901.621 566.96 896.377L564.452 882.848L533.932 888.507Z" fill="#E1E1E1"/>
<path d="M1313.8 753V402.6H1397.8L1488.52 673.8C1487.56 661.96 1486.44 648.36 1485.16 633C1483.88 617.32 1482.76 601.8 1481.8 586.44C1481.16 570.76 1480.84 557.48 1480.84 546.6V402.6H1544.2V753H1460.2L1370.44 481.8C1371.4 492.04 1372.36 504.2 1373.32 518.28C1374.28 532.36 1375.08 546.6 1375.72 561C1376.68 575.4 1377.16 588.2 1377.16 599.4V753H1313.8ZM1707.21 753V402.6H1923.21V464.04H1777.77V542.76H1906.41V604.2H1777.77V691.56H1923.21V753H1707.21ZM2160.63 753V469.8H2071.83V402.6H2321.43V469.8H2232.63V753H2160.63ZM2482.04 753V402.6H2554.04V685.8H2695.64V753H2482.04ZM2858.65 753V402.6H3074.65V464.04H2929.21V542.76H3057.85V604.2H2929.21V691.56H3074.65V753H2858.65ZM3234.3 753V402.6H3348.06C3372.38 402.6 3393.5 407.24 3411.42 416.52C3429.66 425.8 3443.74 438.92 3453.66 455.88C3463.9 472.52 3469.02 492.2 3469.02 514.92V640.2C3469.02 662.6 3463.9 682.28 3453.66 699.24C3443.74 716.2 3429.66 729.48 3411.42 739.08C3393.5 748.36 3372.38 753 3348.06 753H3234.3ZM3306.3 685.8H3348.06C3362.78 685.8 3374.62 681.64 3383.58 673.32C3392.54 665 3397.02 653.96 3397.02 640.2V514.92C3397.02 501.48 3392.54 490.6 3383.58 482.28C3374.62 473.96 3362.78 469.8 3348.06 469.8H3306.3V685.8ZM3733.8 757.8C3710.44 757.8 3689.96 753.48 3672.36 744.84C3654.76 735.88 3641 723.56 3631.08 707.88C3621.48 691.88 3616.68 673.32 3616.68 652.2V503.4C3616.68 481.96 3621.48 463.4 3631.08 447.72C3641 432.04 3654.76 419.88 3672.36 411.24C3689.96 402.28 3710.44 397.8 3733.8 397.8C3757.48 397.8 3777.96 402.28 3795.24 411.24C3812.84 419.88 3826.44 432.04 3836.04 447.72C3845.96 463.4 3850.92 481.96 3850.92 503.4H3778.92C3778.92 489.32 3774.92 478.6 3766.92 471.24C3759.24 463.88 3748.2 460.2 3733.8 460.2C3719.4 460.2 3708.2 463.88 3700.2 471.24C3692.52 478.6 3688.68 489.32 3688.68 503.4V652.2C3688.68 665.96 3692.52 676.68 3700.2 684.36C3708.2 691.72 3719.4 695.4 3733.8 695.4C3748.2 695.4 3759.24 691.72 3766.92 684.36C3774.92 676.68 3778.92 665.96 3778.92 652.2V621.96H3727.08V561H3850.92V652.2C3850.92 673.32 3845.96 691.88 3836.04 707.88C3826.44 723.56 3812.84 735.88 3795.24 744.84C3777.96 753.48 3757.48 757.8 3733.8 757.8ZM4010.09 753V402.6H4226.09V464.04H4080.65V542.76H4209.29V604.2H4080.65V691.56H4226.09V753H4010.09ZM4386.7 753V402.6H4499.5C4524.46 402.6 4546.06 406.92 4564.3 415.56C4582.54 424.2 4596.62 436.52 4606.54 452.52C4616.78 468.52 4621.9 487.4 4621.9 509.16C4621.9 531.88 4616.3 552.2 4605.1 570.12C4594.22 588.04 4579.34 601 4560.46 609L4626.7 753H4548.46L4491.82 620.52H4458.22V753H4386.7ZM4458.22 558.12H4499.5C4515.5 558.12 4527.82 554.12 4536.46 546.12C4545.42 538.12 4549.9 526.92 4549.9 512.52C4549.9 497.48 4545.42 485.8 4536.46 477.48C4527.82 469.16 4515.5 465 4499.5 465H4458.22V558.12Z" fill="#E1E1E1"/>
</svg>
