<svg width="1160" height="1160" viewBox="0 0 1160 1160" fill="none" xmlns="http://www.w3.org/2000/svg">
<rect x="26.5" y="26.5" width="1107" height="1107" fill="#E1E1E1" stroke="#006E2E" stroke-width="53"/>
<rect x="880" y="110" width="170" height="940" fill="#006E2E"/>
<rect x="662" y="110" width="170" height="940" fill="#006E2E"/>
<rect x="306" y="124.257" width="170" height="940" transform="rotate(-9.91006 306 124.257)" fill="#006E2E"/>
<rect x="110" y="110" width="170" height="940" fill="#006E2E"/>
<path d="M349.967 252.662L464.809 231.368L469.185 254.966L376.367 272.176L384.972 318.585L362.947 322.669L349.967 252.662ZM372.854 376.096L487.696 354.802L500.823 425.595L480.686 429.329L471.847 381.661L446.047 386.445L453.865 428.606L433.728 432.34L425.91 390.179L397.278 395.488L406.117 443.155L385.98 446.889L372.854 376.096ZM395.682 499.215L510.525 477.921L517.438 515.205C518.916 523.176 518.679 530.38 516.726 536.817C514.793 543.359 511.349 548.771 506.393 553.053C501.562 557.42 495.423 560.294 487.976 561.675L446.916 569.288C439.575 570.65 432.814 570.168 426.633 567.842C420.471 565.622 415.263 561.814 411.008 556.419C406.878 551.11 404.074 544.47 402.596 536.499L395.682 499.215ZM422.082 518.729L424.62 532.415C425.515 537.24 427.598 540.867 430.869 543.298C434.14 545.729 438.031 546.527 442.541 545.691L483.601 538.077C488.006 537.261 491.299 535.131 493.482 531.689C495.664 528.247 496.308 524.113 495.414 519.289L492.876 505.602L422.082 518.729ZM424.464 663.213C423.044 655.557 423.215 648.582 424.977 642.289C426.844 635.976 430.046 630.718 434.582 626.514C439.243 622.395 445.034 619.694 451.956 618.41L500.725 609.368C507.752 608.065 514.127 608.51 519.849 610.704C525.591 613.002 530.413 616.773 534.314 622.016C538.32 627.24 541.033 633.68 542.452 641.336C543.892 649.097 543.668 656.082 541.781 662.29C540.019 668.583 536.86 673.779 532.305 677.879C527.768 682.083 521.987 684.836 514.96 686.139L510.584 662.541C515.199 661.686 518.469 659.723 520.395 656.654C522.341 653.69 522.876 649.848 522.001 645.128C521.126 640.409 519.239 636.961 516.341 634.787C513.462 632.717 509.715 632.11 505.1 632.965L456.332 642.008C451.822 642.844 448.542 644.754 446.491 647.738C444.565 650.807 444.04 654.702 444.915 659.421C445.79 664.141 447.667 667.536 450.546 669.605C453.549 671.761 457.306 672.42 461.816 671.584L471.727 669.746L468.576 652.756L488.556 649.051L496.082 689.64L466.191 695.182C459.269 696.465 452.885 695.968 447.038 693.689C441.315 691.495 436.451 687.786 432.445 682.563C428.563 677.424 425.903 670.974 424.464 663.213ZM442.827 753.476L557.67 732.182L570.796 802.975L550.659 806.709L541.821 759.041L516.021 763.825L523.838 805.987L503.701 809.72L495.884 767.559L467.252 772.868L476.09 820.535L455.954 824.269L442.827 753.476ZM465.714 876.909L580.557 855.615L587.412 892.585C588.928 900.766 588.825 908.108 587.102 914.611C585.379 921.114 582.196 926.477 577.555 930.701C572.934 935.029 567.057 937.855 559.925 939.177C552.479 940.558 545.479 939.957 538.925 937.376C532.39 934.899 527.239 930.809 523.469 925.108L480.299 955.569L475.544 929.926L515.522 903.311L513.48 892.299L470.06 900.35L465.714 876.909ZM533.932 888.507L536.44 902.036C537.413 907.28 539.472 911.075 542.619 913.421C545.786 915.871 549.729 916.659 554.449 915.784C559.378 914.87 562.934 912.691 565.116 909.249C567.318 905.912 567.933 901.621 566.96 896.377L564.452 882.848L533.932 888.507Z" fill="#E1E1E1"/>
</svg>
